<?xml version="1.0" encoding="UTF-8"?>
<svg id="_레이어_2" data-name="레이어 2" xmlns="http://www.w3.org/2000/svg" viewBox="0 0 130.83 34.67">
  <defs>
    <style>
      .cls-1 {
        fill: #e7bf46;
      }

      .cls-2 {
        fill: #499c9a;
      }

      .cls-3 {
        fill: #d95857;
      }
    </style>
  </defs>
  <g id="_레이어_1-2" data-name="레이어 1">
    <g>
      <path class="cls-3" d="M9.63,20.79c.09-.68.55-1.87.55-2.28s-.37-.82-.82-.82c-1.14,0-2.74,1.1-3.88,1.32-1,.18-2.19,1.1-3.97,1.1-.82,0-1.51-.73-1.51-1.83C0,13.03.59,7.55.59,5.95c0-.68.46-3.65.5-4.34C1.14.97,1.96.11,3.15.11c1.37,0,6.12.18,7.44.18.68,0,2.65-.04,4.57-.09,1.92,0,3.74-.05,4.15-.05h3.01c.64,0,1.28.05,1.87.05.55.05,1.05.05,1.37.05,1.32,0,6.76-.14,8.13-.14,1.28,0,2.24,1.05,2.24,1.96,0,1.6.69,5.02.69,8.22,0,.91.37,4.7.37,8.04,0,.69-1,1.78-1.83,1.78-1.6,0-2.74-.69-3.88-.91-1.42-.27-2.97-1.51-3.88-1.51-.46,0-.87.41-.87.82,0,.68.5,1.6.59,2.33.09.87,1.28,6.16,1.42,7.71.14,1.74.91,3.24.91,4.29,0,.68-.87,1.6-1.69,1.64-3.33.23-8.35-.14-9.5-.05-.91.09-5.94.27-9.27.05-.73-.05-1.51-.82-1.51-1.64,0-.87.64-2.37.73-4.06.09-1.55,1.32-7.3,1.42-7.99Z"/>
      <path class="cls-1" d="M43.83.24c1.14-.23,2.51-.09,3.88,0,2.05.14,2.05,1.1,2.19,2.74.14,1.83.09,7.99.32,10.96.23,2.97.32,17.03.23,18.58-.09,1.55-.96,1.83-2.56,2.01-2.24.23-3.2-.18-4.29-.05-.87.09-2.42.14-3.2.09-2.05-.14-2.28-1.92-2.37-4.43-.09-2.33-.18-11.19-.09-14.11.09-3.01.09-9.59.05-12.6-.05-2.56.59-3.01,2.88-3.2,1.14-.09,2.1.18,2.97,0Z"/>
      <path class="cls-2" d="M70.44.01c2.51-.09,11.87.27,14.84.23,3.2-.05,5.02,2.51,5.02,8.67,0,1.14.23,1.6.23,2.51,0,.68-.37,1.23-.91,1.37-1.6.37-7.53,2.33-8.9,2.74-1.6.46-3.88,1.6-5.25,1.6-.68,0-1.1-.23-1.1-.73,0-.37-.55-.87-.96-.87-1.14,0-2.42.14-2.97.14-.69,0-1.05.82-1.05,2.6,0,2.05.59,2.28,1.51,2.28.69,0,1.6.05,2.28.05s1.19-.5,1.19-.96c0-.59.41-.91,1.1-.91,1.83,0,6.39,1.14,7.99,1.37,1.19.18,4.57.82,5.71.91,1.14.09,1.6.68,1.6,1.83,0,.68-.23,1.37-.23,3.2,0,5.71-.46,8.49-3.65,8.45-2.28-.05-12.78.14-15.98.18-2.51.05-11.19-.18-14.15-.18-2.56,0-4.15-2.28-4.15-4.11,0-2.05-.23-10.73-.23-13.01s.37-8.9.37-11.64c0-2.97,1.51-5.48,3.79-5.48s11.87-.14,13.92-.23Z"/>
      <path class="cls-1" d="M101.76.24c1.51.14,2.24,1.37,2.24,2.97,0,.69-.23,4.75-.23,6.85,0,1.37,0,1.73.91,1.73s.91-.37.91-2.1c0-5.11-.14-6.71-.14-7.62,0-1.14.96-1.92,2.74-1.96,1.96-.05,4.7.18,5.16.14,2.56,0,2.78,1.14,3.06,3.42.23,1.51.14,13.01.32,14.15.09.73.14,2.33.14,4.15,0,3.52-.14,7.85-.09,8.63.23,3.15-.73,3.56-2.97,3.88-.68.18-4.57-.09-6.16.09-1.14.14-2.1-1.23-2.15-2.15-.23-3.97.09-6.85.09-7.76,0-1.83,0-1.78-1.14-1.78-.68,0-.73.41-.73,2.05,0,3.7.09,6.03.09,7.72,0,1.37-.96,1.83-2.79,1.83-1.6,0-4.57.09-5.71.05-2.28-.09-2.51-1.42-2.56-4.38,0-1.42-.37-12.1-.23-14.02.14-1.73.23-10.32.14-12.69-.09-2.69,1.51-3.33,3.79-3.2,1.37.09,4.11-.09,5.3,0Z"/>
      <path class="cls-1" d="M124.17.24c1.14-.23,2.51-.09,3.88,0,2.05.14,2.05,1.1,2.19,2.74.14,1.83.09,7.99.32,10.96.23,2.97.32,17.03.23,18.58-.09,1.55-.96,1.83-2.56,2.01-2.24.23-3.2-.18-4.29-.05-.87.09-2.42.14-3.2.09-2.05-.14-2.28-1.92-2.37-4.43-.09-2.33-.18-11.19-.09-14.11.09-3.01.09-9.59.05-12.6-.05-2.56.59-3.01,2.88-3.2,1.14-.09,2.1.18,2.97,0Z"/>
    </g>
  </g>
</svg>